# xmcd
#
# Track frame offsets:
#	150
#	13170
#	23232
#	36084
#	50221
#	61604
#	75023
#	86433
#	98935
#	108736
#	117937
#	128667
#	142706
#	155449
#	167649
#	180875
#	194705
#	207297
#	220701
#	231312
#
# Disc length: 3236 seconds
#
# Revision: 1
# Processed by: cddbd v1.5.1PL2 Copyright (c) Steve Scherf et al.
# Submitted via: audiograbber 1.83.01
#
DISCID=030ca214
DTITLE=All-time Country Favourites - All-time Country Favourites CD 2
DYEAR=2001
DGENRE=Country
TTITLE0=Lynn Anderson - (I Never Promised You A) Rose Garden
TTITLE1=Porter Wagoner - Green Green Grass Of Home
TTITLE2=Merle Haggard - The Fightin' Side Of Me
TTITLE3=Conway Twitty - You've Never Been This Far Before
TTITLE4=Timi Yuro and Willie Nelson - There's A Way
TTITLE5=Kenny Rogers and The First Edition - Ruby Don't Take Your Love To Town
TTITLE6=George Jones - Talk Back Trembling Lips
TTITLE7=Wanda Jackson - Crazy
TTITLE8=Hank Locklin - Please Help Me I'm Falling
TTITLE9=The Kendalls - Blue, Blue Day
TTITLE10=Billie Jo Spears - What I've Got In Mind
TTITLE11=Lee GreenWood - I.O.U.
TTITLE12=Johnny Cash - Folsom Prison Blues (Live)
TTITLE13=Bill Anderson - The Tips Of My Fingers
TTITLE14=Bobby Bare - Detroit City
TTITLE15=Eddy Arnold - Cattle Call
TTITLE16=Al Dexter - Pistol Packin' Mama
TTITLE17=Charley Pride - I'm So Afraid Of Losing You Again
TTITLE18=Faron Young - Waterloo
TTITLE19=Patsy Cline - Walkin' After Midnight
EXTD=YEAR: 2001
EXTT0=
EXTT1=
EXTT2=
EXTT3=
EXTT4=
EXTT5=
EXTT6=
EXTT7=
EXTT8=
EXTT9=
EXTT10=
EXTT11=
EXTT12=
EXTT13=
EXTT14=
EXTT15=
EXTT16=
EXTT17=
EXTT18=
EXTT19=
PLAYORDER=
